<svg xmlns="http://www.w3.org/2000/svg" xmlns:xlink="http://www.w3.org/1999/xlink" width="28" height="30" viewBox="0 0 28 30"><defs><path id="a" d="M939.4 430.8l-6.23 6.56-5.71-.33-2.08 2.5 5.64 1.5s.25-.34-1 1.04c-1.16 1.3-.18 1.6.8.75.97-.86.99-1.05.99-1.05l2.42 5.34 1.97-3.13-1.29-4.25 6.58-6.94 6.07 13.4 1.86-1.62-2.32-17.86s4.72-5.33 5.26-6.6c.54-1.27.37-2.14-1.31-1.24-1.69.9-6.49 5.78-6.49 5.78l-16.32-.52-2.84 2.3z"/></defs><desc>Generated with Avocode.</desc><g transform="translate(-925 -418)"><use fill="#fff" xlink:href="#a"/></g></svg>